<svg width="52" height="52" viewBox="0 0 52 52" fill="none" xmlns="http://www.w3.org/2000/svg">
<rect x="0.5" y="0.5" width="50.3021" height="50.3021" rx="25.151" fill="white"/>
<g clip-path="url(#clip0_8_10778)">
<path d="M38.1011 18.4236C37.5685 17.8657 36.8331 17.536 35.9963 17.536H31.7868V17.4853C31.7868 16.8514 31.5332 16.2428 31.1021 15.837C30.671 15.4059 30.0878 15.1523 29.4538 15.1523H21.8463C21.187 15.1523 20.6037 15.4059 20.1726 15.837C19.7415 16.2681 19.488 16.8514 19.488 17.4853V17.536H15.3038C14.467 17.536 13.7316 17.8657 13.1991 18.4236C12.6665 18.9561 12.3115 19.7169 12.3115 20.5283V33.1568C12.3115 33.9937 12.6412 34.7291 13.1991 35.2616C13.7316 35.7941 14.4923 36.1491 15.3038 36.1491H35.9963C36.8331 36.1491 37.5685 35.8195 38.1011 35.2616C38.6336 34.7291 38.9886 33.9683 38.9886 33.1568V20.5283C38.9886 19.6915 38.6589 18.9561 38.1011 18.4236ZM37.67 33.1568H37.6446C37.6446 33.6133 37.4671 34.019 37.1628 34.3233C36.8585 34.6276 36.4528 34.8051 35.9963 34.8051H15.3038C14.8474 34.8051 14.4416 34.6276 14.1373 34.3233C13.833 34.019 13.6555 33.6133 13.6555 33.1568V20.5283C13.6555 20.0719 13.833 19.6661 14.1373 19.3618C14.4416 19.0575 14.8474 18.88 15.3038 18.88H20.198C20.5784 18.88 20.8827 18.5757 20.8827 18.1954V17.46C20.8827 17.181 20.9841 16.9274 21.1616 16.7499C21.3391 16.5724 21.5927 16.471 21.8717 16.471H29.4538C29.7328 16.471 29.9864 16.5724 30.1639 16.7499C30.3414 16.9274 30.4428 17.181 30.4428 17.46V18.1954C30.4428 18.5757 30.7471 18.88 31.1275 18.88H36.0217C36.4781 18.88 36.8839 19.0575 37.1882 19.3618C37.4925 19.6661 37.67 20.0719 37.67 20.5283V33.1568Z" fill="url(#paint0_linear_8_10778)"/>
<path d="M25.6503 20.604C23.9259 20.604 22.3537 21.314 21.2379 22.4298C20.0968 23.5709 19.4121 25.1178 19.4121 26.8422C19.4121 28.5666 20.1221 30.1388 21.2379 31.2545C22.379 32.3957 23.9259 33.0804 25.6503 33.0804C27.3747 33.0804 28.9469 32.3703 30.0627 31.2545C31.2038 30.1134 31.8885 28.5666 31.8885 26.8422C31.8885 25.1178 31.1784 23.5456 30.0627 22.4298C28.9469 21.314 27.3747 20.604 25.6503 20.604ZM29.099 30.3163C28.2115 31.1785 26.9943 31.7364 25.6503 31.7364C24.3063 31.7364 23.0891 31.1785 22.2015 30.3163C21.314 29.4287 20.7815 28.2115 20.7815 26.8675C20.7815 25.5235 21.3394 24.3063 22.2015 23.4188C23.0891 22.5312 24.3063 21.9987 25.6503 21.9987C26.9943 21.9987 28.2115 22.5566 29.099 23.4188C29.9866 24.3063 30.5191 25.5235 30.5191 26.8675C30.5445 28.2115 29.9866 29.4287 29.099 30.3163Z" fill="url(#paint1_linear_8_10778)"/>
<path d="M34.6781 23.0642C35.3644 23.0642 35.9207 22.5079 35.9207 21.8217C35.9207 21.1354 35.3644 20.5791 34.6781 20.5791C33.9919 20.5791 33.4355 21.1354 33.4355 21.8217C33.4355 22.5079 33.9919 23.0642 34.6781 23.0642Z" fill="url(#paint2_linear_8_10778)"/>
</g>
<rect x="0.5" y="0.5" width="50.3021" height="50.3021" rx="25.151" stroke="#47B2FF"/>
<defs>
<linearGradient id="paint0_linear_8_10778" x1="13.2643" y1="22.37" x2="37.3831" y2="27.3987" gradientUnits="userSpaceOnUse">
<stop stop-color="#47B2FF"/>
<stop offset="1" stop-color="#47B2FF"/>
</linearGradient>
<linearGradient id="paint1_linear_8_10778" x1="19.8577" y1="24.8928" x2="31.3193" y2="26.7736" gradientUnits="userSpaceOnUse">
<stop stop-color="#47B2FF"/>
<stop offset="1" stop-color="#47B2FF"/>
</linearGradient>
<linearGradient id="paint2_linear_8_10778" x1="33.5243" y1="21.4334" x2="35.8073" y2="21.808" gradientUnits="userSpaceOnUse">
<stop stop-color="#47B2FF"/>
<stop offset="1" stop-color="#47B2FF"/>
</linearGradient>
<clipPath id="clip0_8_10778">
<rect width="26.6771" height="26.6771" fill="white" transform="translate(12.3125 12.3125)"/>
</clipPath>
</defs>
</svg>
