<svg width="75" height="75" viewBox="0 0 75 75" fill="none" xmlns="http://www.w3.org/2000/svg">
<path d="M74.4238 37.1107C74.4238 57.3347 58.029 73.7295 37.805 73.7295C17.581 73.7295 1.18619 57.3347 1.18619 37.1107C1.18619 16.8867 17.581 0.49185 37.805 0.49185C58.029 0.49185 74.4238 16.8867 74.4238 37.1107Z" fill="#F3F3F9" stroke="#E9EBEC" stroke-width="0.927059"/>
<ellipse cx="37.8036" cy="37.1102" rx="33.2196" ry="33.2196" fill="url(#paint0_linear_64_1509)"/>
<mask id="mask0_64_1509" style="mask-type:alpha" maskUnits="userSpaceOnUse" x="4" y="3" width="68" height="68">
<ellipse cx="37.8036" cy="37.1102" rx="33.2196" ry="33.2196" fill="url(#paint1_linear_64_1509)"/>
</mask>
<g mask="url(#mask0_64_1509)">
<rect x="-3.63477" y="-3.83423" width="83.0214" height="82.8068" rx="5.2605" fill="url(#paint2_radial_64_1509)"/>
<rect x="-3.63477" y="-3.83423" width="83.0214" height="82.8068" rx="5.2605" fill="url(#paint3_radial_64_1509)"/>
<rect x="-3.63477" y="-3.83423" width="83.0214" height="82.8068" rx="5.2605" fill="url(#paint4_radial_64_1509)"/>
<path d="M50.851 27.2659C50.851 28.8059 49.5993 30.0543 48.0553 30.0543C46.5113 30.0543 45.2597 28.8059 45.2597 27.2659C45.2597 25.7259 46.5113 24.4775 48.0553 24.4775C49.5993 24.4775 50.851 25.7259 50.851 27.2659Z" fill="white"/>
<path fill-rule="evenodd" clip-rule="evenodd" d="M37.8046 46.7848C42.9513 46.7848 47.1234 42.6234 47.1234 37.4901C47.1234 32.3567 42.9513 28.1954 37.8046 28.1954C32.658 28.1954 28.4858 32.3567 28.4858 37.4901C28.4858 42.6234 32.658 46.7848 37.8046 46.7848ZM37.8046 43.0669C40.8926 43.0669 43.3959 40.5701 43.3959 37.4901C43.3959 34.4101 40.8926 31.9132 37.8046 31.9132C34.7166 31.9132 32.2133 34.4101 32.2133 37.4901C32.2133 40.5701 34.7166 43.0669 37.8046 43.0669Z" fill="white"/>
<path fill-rule="evenodd" clip-rule="evenodd" d="M19.167 36.7465C19.167 30.4999 19.167 27.3765 20.3858 24.9906C21.4579 22.8919 23.1686 21.1857 25.2728 20.1163C27.6649 18.9006 30.7963 18.9006 37.0591 18.9006H38.5501C44.8129 18.9006 47.9444 18.9006 50.3364 20.1163C52.4406 21.1857 54.1513 22.8919 55.2234 24.9906C56.4422 27.3765 56.4422 30.4999 56.4422 36.7465V38.2337C56.4422 44.4803 56.4422 47.6036 55.2234 49.9895C54.1513 52.0882 52.4406 53.7945 50.3364 54.8639C47.9444 56.0795 44.8129 56.0795 38.5501 56.0795H37.0591C30.7963 56.0795 27.6649 56.0795 25.2728 54.8639C23.1686 53.7945 21.4579 52.0882 20.3858 49.9895C19.167 47.6036 19.167 44.4803 19.167 38.2337V36.7465ZM37.0591 22.6185H38.5501C41.743 22.6185 43.9136 22.6214 45.5913 22.7581C47.2255 22.8913 48.0612 23.1327 48.6442 23.429C50.0469 24.1419 51.1874 25.2794 51.9022 26.6785C52.1992 27.26 52.4412 28.0936 52.5747 29.7236C52.7118 31.3969 52.7147 33.5618 52.7147 36.7465V38.2337C52.7147 41.4183 52.7118 43.5832 52.5747 45.2566C52.4412 46.8866 52.1992 47.7202 51.9022 48.3016C51.1874 49.7008 50.0469 50.8383 48.6442 51.5512C48.0612 51.8475 47.2255 52.0889 45.5913 52.222C43.9136 52.3588 41.743 52.3616 38.5501 52.3616H37.0591C33.8662 52.3616 31.6957 52.3588 30.018 52.222C28.3838 52.0889 27.548 51.8475 26.965 51.5512C25.5623 50.8383 24.4218 49.7008 23.7071 48.3016C23.41 47.7202 23.168 46.8866 23.0345 45.2566C22.8974 43.5832 22.8945 41.4183 22.8945 38.2337V36.7465C22.8945 33.5618 22.8974 31.3969 23.0345 29.7236C23.168 28.0936 23.41 27.26 23.7071 26.6785C24.4218 25.2794 25.5623 24.1419 26.965 23.429C27.548 23.1327 28.3838 22.8913 30.018 22.7581C31.6957 22.6214 33.8662 22.6185 37.0591 22.6185Z" fill="white"/>
</g>
<defs>
<linearGradient id="paint0_linear_64_1509" x1="37.8036" y1="3.89063" x2="37.8036" y2="70.1328" gradientUnits="userSpaceOnUse">
<stop stop-color="#18ACFE"/>
<stop offset="1" stop-color="#0163E0"/>
</linearGradient>
<linearGradient id="paint1_linear_64_1509" x1="37.8036" y1="3.89063" x2="37.8036" y2="70.1328" gradientUnits="userSpaceOnUse">
<stop stop-color="#18ACFE"/>
<stop offset="1" stop-color="#0163E0"/>
</linearGradient>
<radialGradient id="paint2_radial_64_1509" cx="0" cy="0" r="1" gradientUnits="userSpaceOnUse" gradientTransform="translate(26.0157 58.2709) rotate(-55.3065) scale(75.5345 75.6036)">
<stop stop-color="#B13589"/>
<stop offset="0.79309" stop-color="#C62F94"/>
<stop offset="1" stop-color="#8A3AC8"/>
</radialGradient>
<radialGradient id="paint3_radial_64_1509" cx="0" cy="0" r="1" gradientUnits="userSpaceOnUse" gradientTransform="translate(23.0507 81.93) rotate(-65.0797) scale(66.8505 66.9624)">
<stop stop-color="#E0E8B7"/>
<stop offset="0.444662" stop-color="#FB8A2E"/>
<stop offset="0.71474" stop-color="#E2425C"/>
<stop offset="1" stop-color="#E2425C" stop-opacity="0"/>
</radialGradient>
<radialGradient id="paint4_radial_64_1509" cx="0" cy="0" r="1" gradientUnits="userSpaceOnUse" gradientTransform="translate(-8.08234 -0.876843) rotate(-8.10937) scale(115.307 24.6019)">
<stop offset="0.156701" stop-color="#406ADC"/>
<stop offset="0.467799" stop-color="#6A45BE"/>
<stop offset="1" stop-color="#6A45BE" stop-opacity="0"/>
</radialGradient>
</defs>
</svg>
