<svg width="241" height="36" viewBox="0 0 241 36" fill="none" xmlns="http://www.w3.org/2000/svg">
<path d="M78 27.9999L78.4233 26.5609L78 27.9999ZM230.061 0.43934C229.475 -0.146447 228.525 -0.146447 227.939 0.43934L218.393 9.98528C217.808 10.5711 217.808 11.5208 218.393 12.1066C218.979 12.6924 219.929 12.6924 220.515 12.1066L229 3.62132L237.485 12.1066C238.071 12.6924 239.021 12.6924 239.607 12.1066C240.192 11.5208 240.192 10.5711 239.607 9.98528L230.061 0.43934ZM0.5 13C0.5 13.8693 0.525056 14.6908 0.57598 15.4664L3.56954 15.2699C3.52343 14.5676 3.5 13.8123 3.5 13H0.5ZM1.47619 20.5234C2.13656 22.4921 3.15969 24.0114 4.59528 25.0947L6.4023 22.7C5.53502 22.0455 4.82529 21.0744 4.32044 19.5694L1.47619 20.5234ZM9.69561 26.9882C11.2158 27.1846 12.8959 27.1931 14.7085 27.0947L14.546 24.0991C12.827 24.1924 11.3479 24.1768 10.08 24.013L9.69561 26.9882ZM19.5021 26.669C20.9854 26.5028 22.5644 26.3068 24.2224 26.1047L23.8595 23.1267C22.1908 23.3301 20.6327 23.5236 19.1682 23.6876L19.5021 26.669ZM28.9211 25.5565C30.4148 25.394 31.969 25.2396 33.5849 25.1049L33.3356 22.1152C31.6894 22.2525 30.1096 22.4095 28.5968 22.574L28.9211 25.5565ZM38.2714 24.7886C39.7806 24.712 41.3369 24.6588 42.9407 24.6366L42.8992 21.6369C41.2558 21.6596 39.6626 21.7142 38.1195 21.7924L38.2714 24.7886ZM47.6271 24.6636C49.1467 24.7026 50.7049 24.7726 52.3017 24.879L52.5013 21.8857C50.8622 21.7764 49.2631 21.7046 47.7042 21.6646L47.6271 24.6636ZM56.9493 25.2853C58.4615 25.449 60.0057 25.647 61.582 25.8835L62.0272 22.9168C60.4095 22.674 58.8245 22.4707 57.2721 22.3027L56.9493 25.2853ZM66.1899 26.6711C67.6878 26.9584 69.2127 27.2812 70.7647 27.643L71.4457 24.7213C69.8549 24.3505 68.2913 24.0195 66.7549 23.7248L66.1899 26.6711ZM75.2999 28.7924C76.0529 28.9986 76.8118 29.214 77.5768 29.439L78.4233 26.5609C77.6403 26.3306 76.8632 26.1101 76.0922 25.8989L75.2999 28.7924ZM77.5768 29.439C78.3819 29.6758 79.1763 29.9052 79.9603 30.1273L80.7783 27.241C80.004 27.0216 79.2191 26.7949 78.4233 26.5609L77.5768 29.439ZM84.5462 31.3761C86.1729 31.8003 87.7511 32.191 89.2827 32.5496L89.9667 29.6286C88.4606 29.2759 86.9067 28.8913 85.3032 28.4732L84.5462 31.3761ZM94.0168 33.5876C95.6579 33.9216 97.2408 34.2158 98.7681 34.472L99.2644 31.5133C97.7729 31.2631 96.2242 30.9754 94.6153 30.6479L94.0168 33.5876ZM103.557 35.176C105.244 35.3868 106.855 35.5466 108.397 35.6589L108.615 32.6668C107.128 32.5585 105.568 32.404 103.93 32.1992L103.557 35.176ZM113.28 35.862C115.011 35.8756 116.641 35.8217 118.18 35.7067L117.957 32.7151C116.505 32.8235 114.957 32.8751 113.304 32.8621L113.28 35.862ZM123.062 35.0923C124.811 34.7739 126.421 34.3648 127.912 33.8795L126.983 31.0268C125.626 31.4687 124.146 31.8456 122.524 32.1408L123.062 35.0923ZM132.55 31.9564C134.125 31.1472 135.533 30.2486 136.813 29.2966L135.023 26.8892C133.863 27.7514 132.596 28.5603 131.179 29.2878L132.55 31.9564ZM140.588 26.0539C141.802 24.8733 142.91 23.6726 143.958 22.5271L141.746 20.5015C140.697 21.6468 139.642 22.7895 138.496 23.903L140.588 26.0539ZM147.19 19.1049C148.303 18.0107 149.425 17.0427 150.644 16.2395L148.994 13.7341C147.558 14.6799 146.283 15.7891 145.087 16.9652L147.19 19.1049ZM154.564 14.402C155.829 14.0274 157.25 13.7945 158.883 13.75L158.801 10.7511C156.926 10.8022 155.245 11.0716 153.712 11.5253L154.564 14.402ZM163.397 14.0522C164.126 14.1602 164.889 14.2978 165.689 14.4674L166.311 11.5326C165.455 11.3511 164.631 11.2022 163.836 11.0846L163.397 14.0522ZM165.689 14.4674C166.457 14.6303 167.224 14.7948 167.99 14.9601L168.623 12.0277C167.854 11.8617 167.084 11.6965 166.311 11.5326L165.689 14.4674ZM172.589 15.9657C174.13 16.3053 175.675 16.6478 177.193 16.9822L177.838 14.0525C176.313 13.7165 174.788 13.3784 173.235 13.036L172.589 15.9657ZM181.807 17.9891C183.367 18.3247 184.91 18.6503 186.432 18.9608L187.032 16.0213C185.523 15.7135 183.991 15.3902 182.438 15.0562L181.807 17.9891ZM191.091 19.8713C192.681 20.1664 194.243 20.4382 195.775 20.6803L196.243 17.7172C194.743 17.4799 193.207 17.2128 191.638 16.9217L191.091 19.8713ZM200.497 21.3383C202.134 21.5318 203.728 21.6798 205.274 21.7728L205.454 18.7783C203.975 18.6892 202.438 18.5469 200.849 18.359L200.497 21.3383ZM210.118 21.8696C211.827 21.8252 213.464 21.6874 215.016 21.4375L214.539 18.4756C213.141 18.7008 211.639 18.829 210.04 18.8707L210.118 21.8696ZM219.865 20.1596C221.512 19.5195 223.017 18.677 224.345 17.5949L222.451 15.2689C221.395 16.1292 220.17 16.8223 218.778 17.3633L219.865 20.1596ZM227.735 13.6394C228.56 12.2421 229.203 10.6605 229.66 8.88671L226.755 8.13819C226.36 9.67005 225.818 10.9853 225.152 12.1139L227.735 13.6394ZM230.42 3.96216C230.473 3.17078 230.5 2.3503 230.5 1.5H227.5C227.5 2.28777 227.475 3.04119 227.427 3.76154L230.42 3.96216Z" fill="#47B2FF"/>
</svg>
