<svg width="120" height="87" viewBox="0 0 120 87" fill="none" xmlns="http://www.w3.org/2000/svg">
<path d="M75.0004 38.4304L76.4149 38.9296L75.0004 38.4304ZM118 25.4304L119.465 25.7557L118 25.4304ZM13.431 86.3878C14.1974 86.7022 15.0737 86.3358 15.3881 85.5693L20.5121 73.0796C20.8265 72.3131 20.4601 71.4369 19.6937 71.1225C18.9273 70.808 18.051 71.1745 17.7366 71.9409L13.1819 83.0429L2.0799 78.4882C1.31347 78.1738 0.437252 78.5402 0.122817 79.3067C-0.191618 80.0731 0.174801 80.9493 0.941236 81.2637L13.431 86.3878ZM15.3842 84.4213C15.0648 83.6574 14.7484 82.8819 14.4387 82.097L11.6481 83.1982C11.9662 84.0043 12.2903 84.7987 12.6165 85.5787L15.3842 84.4213ZM12.7232 77.3966C12.1984 75.8156 11.7269 74.2204 11.3346 72.628L8.42171 73.3456C8.83595 75.0271 9.33064 76.699 9.87598 78.3417L12.7232 77.3966ZM10.4113 67.7999C10.1965 66.1521 10.0994 64.5356 10.1464 62.9684L7.14774 62.8784C7.0952 64.6294 7.20437 66.4074 7.43643 68.1877L10.4113 67.7999ZM10.7873 58.2713C11.1787 56.7596 11.7577 55.3216 12.5556 53.9735L9.97398 52.4454C9.02161 54.0544 8.33946 55.7568 7.88307 57.5192L10.7873 58.2713ZM15.4693 50.3691C16.5388 49.3701 17.8046 48.436 19.296 47.5848L17.809 44.9793C16.1306 45.9372 14.6736 47.0071 13.4214 48.1767L15.4693 50.3691ZM23.6762 45.5794C25.1031 45.0584 26.6701 44.5934 28.3887 44.1923L27.7069 41.2708C25.8821 41.6967 24.1982 42.1951 22.6473 42.7614L23.6762 45.5794ZM33.2331 43.2951C34.7918 43.0732 36.4477 42.8949 38.206 42.7639L37.9831 39.7722C36.1632 39.9078 34.4403 40.0929 32.8103 40.325L33.2331 43.2951ZM43.1829 42.5281C44.0115 42.5095 44.8593 42.5001 45.7266 42.5001V39.5001C44.8376 39.5001 43.9675 39.5098 43.1158 39.5288L43.1829 42.5281ZM45.7266 42.5001C46.6345 42.5001 47.5524 42.4658 48.4784 42.3999L48.2657 39.4075C47.4057 39.4686 46.5589 39.5001 45.7266 39.5001V42.5001ZM53.8954 41.6925C55.6416 41.3694 57.4089 40.9581 59.1875 40.4752L58.4013 37.58C56.6914 38.0443 55.0047 38.4363 53.3495 38.7426L53.8954 41.6925ZM64.3475 38.8952C66.0279 38.3267 67.7129 37.7078 69.3947 37.0513L68.3038 34.2567C66.6591 34.8987 65.0175 35.5015 63.3861 36.0534L64.3475 38.8952ZM74.3498 35.013C75.9879 34.3075 77.6171 33.5771 79.2299 32.8337L77.974 30.1092C76.3801 30.844 74.7743 31.5638 73.1632 32.2577L74.3498 35.013ZM84.0496 30.5577C85.6709 29.7763 87.2684 28.9928 88.8332 28.2207L87.5056 25.5304C85.945 26.3005 84.3566 27.0794 82.747 27.8552L84.0496 30.5577ZM93.58 25.8722C95.2209 25.0616 96.8112 24.281 98.3432 23.5459L97.0453 20.8412C95.4978 21.5837 93.8955 22.3702 92.2513 23.1825L93.58 25.8722ZM103.119 21.3312C104.848 20.5655 106.458 19.9036 107.934 19.3729L106.918 16.55C105.354 17.1126 103.675 17.8043 101.904 18.5879L103.119 21.3312ZM112.749 18.0648C114.843 17.7673 115.851 18.1469 116.338 18.7076L118.603 16.7406C117.082 14.989 114.709 14.7562 112.327 15.0946L112.749 18.0648ZM116.952 22.6368C116.877 23.3625 116.741 24.1826 116.536 25.105L119.465 25.7557C119.69 24.7434 119.847 23.8073 119.936 22.9452L116.952 22.6368ZM116.536 25.105C116.353 25.9274 116.165 26.732 115.97 27.5191L118.883 28.2379C119.083 27.4277 119.277 26.6004 119.465 25.7557L116.536 25.105ZM114.69 32.1983C114.202 33.8115 113.689 35.3381 113.153 36.7816L115.966 37.8254C116.524 36.3212 117.057 34.7359 117.562 33.0667L114.69 32.1983ZM111.321 41.2207C110.617 42.7538 109.886 44.1693 109.133 45.4735L111.731 46.9735C112.533 45.5837 113.307 44.0849 114.047 42.4722L111.321 41.2207ZM106.52 49.4565C105.514 50.8007 104.484 51.9767 103.442 52.9982L105.542 55.1409C106.701 54.0052 107.831 52.7125 108.922 51.2541L106.52 49.4565ZM99.8506 55.9066C98.486 56.7953 97.1189 57.4548 95.7707 57.9138L96.7376 60.7537C98.3315 60.211 99.9229 59.4396 101.488 58.4204L99.8506 55.9066ZM91.3715 58.7423C89.8401 58.8019 88.3514 58.6226 86.9382 58.2403L86.1549 61.1362C87.8538 61.5958 89.6457 61.8117 91.4881 61.74L91.3715 58.7423ZM82.8393 56.4467C81.5616 55.6483 80.405 54.6685 79.4094 53.5487L77.1674 55.5421C78.3514 56.8737 79.7273 58.0396 81.2496 58.9908L82.8393 56.4467ZM76.9436 49.8067C76.3162 48.4603 75.8886 47.0216 75.6962 45.5313L72.7209 45.9155C72.9543 47.7231 73.4718 49.4588 74.2244 51.0739L76.9436 49.8067ZM75.8293 41.0945C75.9654 40.3771 76.1591 39.6542 76.4149 38.9296L73.5859 37.9311C73.2799 38.7982 73.0464 39.6679 72.8819 40.5353L75.8293 41.0945ZM76.4149 38.9296C76.7174 38.0725 76.9984 37.2399 77.2585 36.4311L74.4026 35.5126C74.1515 36.2932 73.8795 37.0992 73.5859 37.9311L76.4149 38.9296ZM78.6621 31.4956C79.1096 29.6529 79.4259 27.954 79.619 26.3874L76.6416 26.0202C76.4647 27.4551 76.1714 29.0393 75.7468 30.7878L78.6621 31.4956ZM79.7788 21.071C79.6033 18.9654 79.1058 17.1651 78.3036 15.6424L75.6494 17.0406C76.2317 18.146 76.6409 19.5416 76.7892 21.3202L79.7788 21.071ZM74.3314 11.4573C72.7761 10.5147 71.0027 9.91772 69.141 9.53524L68.5373 12.4739C70.177 12.8107 71.6 13.3099 72.7765 14.0229L74.3314 11.4573ZM63.91 8.9283C62.2248 8.84589 60.4922 8.84088 58.7744 8.85691L58.8024 11.8568C60.5017 11.8409 62.1659 11.8466 63.7634 11.9247L63.91 8.9283ZM53.7369 8.9147C52.0135 8.9205 50.3581 8.89248 48.8052 8.77578L48.5804 11.7673C50.2476 11.8926 51.9928 11.9206 53.747 11.9147L53.7369 8.9147ZM44.1594 8.00509C42.5953 7.53939 41.3633 6.86948 40.4611 5.94192L38.3106 8.03363C39.6723 9.43361 41.4104 10.3167 43.3033 10.8804L44.1594 8.00509ZM38.688 2.26153C38.5668 1.59338 38.5004 0.843078 38.5004 0H35.5004C35.5004 0.999658 35.5791 1.93081 35.7361 2.79677L38.688 2.26153Z" fill="#47B2FF"/>
</svg>
