<svg width="436" height="279" viewBox="0 0 436 279" fill="none" xmlns="http://www.w3.org/2000/svg">
<path d="M367.45 119.137L369.272 120.849L367.45 119.137ZM416 279L435.101 257.355L406.805 251.636L416 279ZM1.52928 196.623C1.1996 198.784 0.981439 200.871 0.87317 202.884L5.86595 203.153C5.96485 201.314 6.16512 199.389 6.4721 197.377L1.52928 196.623ZM1.73132 215.09C2.66662 219.419 4.29233 223.268 6.56337 226.643L10.7116 223.852C8.81543 221.034 7.42791 217.781 6.61856 214.034L1.73132 215.09ZM15.4666 235.485C18.7319 237.71 22.4576 239.503 26.5681 240.909L28.1864 236.178C24.4275 234.892 21.1188 233.286 18.2827 231.353L15.4666 235.485ZM38.2767 243.758C42.0319 244.364 46.0092 244.756 50.181 244.953L50.416 239.958C46.4053 239.769 42.6174 239.394 39.0727 238.822L38.2767 243.758ZM62.0833 245.013C65.9071 244.888 69.8602 244.633 73.9272 244.257L73.4665 239.278C69.4883 239.646 65.6348 239.894 61.9198 240.016L62.0833 245.013ZM85.7038 242.879C89.5152 242.347 93.4083 241.724 97.3727 241.017L96.4949 236.095C92.5876 236.791 88.7565 237.404 85.0119 237.927L85.7038 242.879ZM108.879 238.774C112.652 237.979 116.479 237.117 120.35 236.193L119.189 231.33C115.359 232.244 111.576 233.097 107.848 233.882L108.879 238.774ZM131.786 233.319C135.538 232.33 139.323 231.289 143.135 230.199L141.761 225.392C137.981 226.472 134.228 227.504 130.512 228.484L131.786 233.319ZM154.369 226.874C158.089 225.736 161.829 224.556 165.581 223.338L164.037 218.583C160.311 219.792 156.599 220.963 152.906 222.093L154.369 226.874ZM176.739 219.618C180.421 218.359 184.11 217.067 187.799 215.744L186.112 211.038C182.445 212.352 178.78 213.636 175.121 214.887L176.739 219.618ZM198.826 211.704C202.487 210.335 206.143 208.938 209.789 207.519L207.974 202.859C204.349 204.271 200.714 205.66 197.074 207.022L198.826 211.704ZM220.7 203.188C224.337 201.718 227.957 200.227 231.555 198.72L229.623 194.108C226.044 195.608 222.443 197.091 218.826 198.553L220.7 203.188ZM242.324 194.128C245.943 192.558 249.532 190.974 253.087 189.378L251.039 184.817C247.504 186.403 243.934 187.979 240.334 189.541L242.324 194.128ZM263.77 184.501C267.34 182.843 270.867 181.177 274.344 179.506L272.179 175C268.722 176.661 265.215 178.317 261.664 179.966L263.77 184.501ZM284.911 174.339C288.478 172.563 291.98 170.787 295.411 169.014L293.116 164.572C289.708 166.333 286.227 168.098 282.683 169.863L284.911 174.339ZM305.793 163.542C309.305 161.652 312.726 159.772 316.045 157.907L313.594 153.548C310.304 155.398 306.911 157.263 303.425 159.138L305.793 163.542ZM326.213 152.048C329.723 149.973 333.09 147.923 336.299 145.906L333.638 141.672C330.47 143.663 327.143 145.69 323.669 147.744L326.213 152.048ZM346.182 139.46C349.637 137.113 352.842 134.824 355.769 132.608L352.751 128.621C349.902 130.778 346.768 133.017 343.372 135.323L346.182 139.46ZM365.045 124.982C366.601 123.567 368.014 122.187 369.272 120.849L365.628 117.425C364.474 118.653 363.157 119.94 361.681 121.283L365.045 124.982ZM369.272 120.849C370.708 119.32 372.1 117.799 373.447 116.288L369.714 112.962C368.397 114.439 367.035 115.927 365.628 117.425L369.272 120.849ZM381.352 106.88C384.004 103.518 386.428 100.207 388.631 96.949L384.49 94.1477C382.359 97.2982 380.007 100.511 377.426 103.783L381.352 106.88ZM395.114 86.3892C397.218 82.5645 399.003 78.8236 400.48 75.1743L395.846 73.2984C394.448 76.7507 392.749 80.3136 390.733 83.9796L395.114 86.3892ZM404.295 63.2679C405.305 58.9167 405.837 54.7216 405.906 50.7014L400.907 50.6152C400.844 54.2539 400.362 58.0985 399.424 62.1374L404.295 63.2679ZM404.451 38.0067C403.345 33.762 401.627 29.8157 399.339 26.2017L395.114 28.8763C397.124 32.051 398.636 35.5197 399.612 39.2665L404.451 38.0067ZM390.942 16.5049C387.839 13.8111 384.306 11.4406 380.388 9.40713L378.085 13.8451C381.684 15.7131 384.884 17.867 387.664 20.2806L390.942 16.5049ZM368.742 4.69491C364.919 3.52009 360.851 2.58554 356.559 1.89951L355.77 6.83684C359.85 7.48905 363.69 8.37314 367.274 9.47433L368.742 4.69491ZM344.191 0.644945C342.166 0.548572 340.102 0.5 338 0.5V5.5C340.025 5.5 342.01 5.54679 343.954 5.63929L344.191 0.644945ZM338 0.5C335.998 0.5 333.905 0.566621 331.743 0.70257L332.057 5.69272C334.12 5.56298 336.108 5.5 338 5.5V0.5ZM319.318 2.15791C315.325 2.83446 311.226 3.72727 307.119 4.85293L308.441 9.67509C312.381 8.59507 316.318 7.73754 320.153 7.08763L319.318 2.15791ZM295.241 8.79834C291.346 10.3372 287.525 12.1115 283.869 14.1384L286.293 18.5115C289.741 16.6 293.364 14.916 297.078 13.4485L295.241 8.79834ZM273.328 21.1167C269.974 23.7746 266.889 26.7302 264.186 30.0037L268.041 33.1877C270.497 30.214 273.323 27.5003 276.433 25.0356L273.328 21.1167ZM257.304 40.8496C255.54 44.6462 254.245 48.7419 253.508 53.1459L258.44 53.9703C259.101 50.0156 260.262 46.3506 261.839 42.9559L257.304 40.8496ZM252.96 65.9616C253.247 69.9346 253.945 74.0963 255.091 78.4521L259.926 77.1799C258.853 73.0995 258.21 69.2428 257.947 65.6003L252.96 65.9616ZM259.165 90.3602C259.949 92.2376 260.81 94.1472 261.75 96.0894L266.251 93.9103C265.349 92.048 264.526 90.2228 263.78 88.4341L259.165 90.3602ZM261.75 96.0894C262.61 97.8651 263.539 99.6081 264.531 101.32L268.857 98.8136C267.925 97.2044 267.055 95.5706 266.251 93.9103L261.75 96.0894ZM271.107 111.106C273.461 114.178 276.015 117.15 278.737 120.038L282.375 116.607C279.757 113.83 277.314 110.987 275.075 108.065L271.107 111.106ZM287.08 128.191C289.918 130.765 292.88 133.279 295.938 135.743L299.075 131.849C296.082 129.438 293.195 126.987 290.439 124.487L287.08 128.191ZM305.121 142.81C308.196 145.08 311.339 147.317 314.525 149.53L317.377 145.423C314.222 143.232 311.12 141.023 308.091 138.787L305.121 142.81ZM324.066 156.019C327.246 158.146 330.451 160.26 333.656 162.37L336.404 158.193C333.202 156.085 330.01 153.979 326.845 151.863L324.066 156.019ZM343.244 168.686C346.442 170.802 349.621 172.922 352.762 175.057L355.572 170.922C352.408 168.771 349.211 166.639 346.003 164.516L343.244 168.686ZM362.154 181.585C365.279 183.816 368.34 186.069 371.318 188.356L374.363 184.391C371.332 182.062 368.222 179.774 365.058 177.515L362.154 181.585ZM380.166 195.488C383.089 197.972 385.893 200.502 388.554 203.089L392.039 199.504C389.289 196.83 386.401 194.225 383.404 191.678L380.166 195.488ZM396.287 211.269C398.767 214.147 401.055 217.098 403.126 220.136L407.258 217.32C405.07 214.11 402.664 211.01 400.074 208.005L396.287 211.269ZM408.758 229.728C410.398 233.043 411.78 236.464 412.874 240.008L417.651 238.533C416.474 234.721 414.992 231.052 413.24 227.511L408.758 229.728ZM415.234 250.783C415.706 254.345 415.902 258.037 415.793 261.872L420.791 262.014C420.908 257.916 420.699 253.957 420.191 250.126L415.234 250.783Z" fill="#47B2FF"/>
</svg>
