<svg width="14" height="18" viewBox="0 0 14 18" fill="none" xmlns="http://www.w3.org/2000/svg">
<path fill-rule="evenodd" clip-rule="evenodd" d="M10.3535 7.37329C10.3535 9.22538 8.85211 10.7268 7.00001 10.7268C5.14791 10.7268 3.64649 9.22538 3.64649 7.37329C3.64649 5.52119 5.14791 4.01978 7.00001 4.01978C8.85211 4.01978 10.3535 5.52119 10.3535 7.37329ZM8.68686 7.37329C8.68686 8.30491 7.93163 9.06013 7.00001 9.06013C6.06839 9.06013 5.31316 8.30491 5.31316 7.37329C5.31316 6.44167 6.06839 5.68644 7.00001 5.68644C7.93163 5.68644 8.68686 6.44167 8.68686 7.37329Z" fill="#A0A3BD"/>
<path fill-rule="evenodd" clip-rule="evenodd" d="M13.707 7.37353C13.707 13.1338 8.7599 16.4205 7.36321 17.2336C7.13516 17.3664 6.86484 17.3664 6.63679 17.2336C5.2401 16.4205 0.292969 13.1338 0.292969 7.37353C0.292969 3.66934 3.29581 0.666504 7 0.666504C10.7042 0.666504 13.707 3.66934 13.707 7.37353ZM12.0404 7.37353C12.0404 9.74315 11.0301 11.6342 9.79451 13.0728C8.80774 14.2218 7.71501 15.0349 7 15.4998C6.28498 15.0349 5.19226 14.2218 4.20549 13.0728C2.96991 11.6342 1.95964 9.74314 1.95964 7.37353C1.95964 4.58982 4.21628 2.33317 7 2.33317C9.78372 2.33317 12.0404 4.58982 12.0404 7.37353Z" fill="#A0A3BD"/>
</svg>
