<svg width="75" height="75" viewBox="0 0 75 75" fill="none" xmlns="http://www.w3.org/2000/svg">
<path d="M73.8145 37.1107C73.8145 57.3347 57.4197 73.7295 37.1956 73.7295C16.9716 73.7295 0.576811 57.3347 0.576811 37.1107C0.576811 16.8867 16.9716 0.49185 37.1956 0.49185C57.4197 0.49185 73.8145 16.8867 73.8145 37.1107Z" fill="#F3F3F9" stroke="#E9EBEC" stroke-width="0.927059"/>
<mask id="mask0_64_1524" style="mask-type:alpha" maskUnits="userSpaceOnUse" x="3" y="3" width="68" height="68">
<ellipse cx="37.1942" cy="37.1102" rx="33.2196" ry="33.2196" fill="url(#paint0_linear_64_1524)"/>
</mask>
<g mask="url(#mask0_64_1524)">
<g clip-path="url(#clip0_64_1524)">
<path d="M37.1954 70.4841C55.6274 70.4841 70.5695 55.542 70.5695 37.11C70.5695 18.6779 55.6274 3.73584 37.1954 3.73584C18.7634 3.73584 3.82129 18.6779 3.82129 37.11C3.82129 55.542 18.7634 70.4841 37.1954 70.4841Z" fill="#1DA1F2"/>
<path d="M52.492 24.2493C52.492 24.2493 49.8418 25.9601 48.3681 26.4451C47.5771 25.4512 46.5259 24.7468 45.3566 24.4271C44.1874 24.1075 42.9565 24.1879 41.8305 24.6575C40.7044 25.1272 39.7374 25.9634 39.0605 27.0531C38.3835 28.1429 38.0291 29.4335 38.0453 30.7505V32.1856C35.7372 32.251 33.4503 31.6916 31.388 30.5573C29.3257 29.4231 27.5522 27.7491 26.2253 25.6844C26.2253 25.6844 20.972 38.6007 32.792 44.3412C30.0872 46.3474 26.8651 47.3534 23.5986 47.2115C35.4186 54.3872 49.8653 47.2115 49.8653 30.7074C49.8641 30.3076 49.8289 29.9089 49.7602 29.5162C51.1006 28.0718 52.492 24.2493 52.492 24.2493Z" fill="white"/>
</g>
</g>
<defs>
<linearGradient id="paint0_linear_64_1524" x1="37.1942" y1="3.89063" x2="37.1942" y2="70.1328" gradientUnits="userSpaceOnUse">
<stop stop-color="#18ACFE"/>
<stop offset="1" stop-color="#0163E0"/>
</linearGradient>
<clipPath id="clip0_64_1524">
<rect width="66.7482" height="66.7482" fill="white" transform="translate(3.82129 3.73633)"/>
</clipPath>
</defs>
</svg>
