<svg width="21" height="19" viewBox="0 0 21 19" fill="none" xmlns="http://www.w3.org/2000/svg">
<path d="M5.5507 9.96447C5.16016 9.57393 5.1602 8.94075 5.5507 8.55026C5.9412 8.15976 6.57437 8.15972 6.96491 8.55026L9.50049 11.0858V1.5C9.50049 0.947716 9.9482 0.5 10.5005 0.5C11.0528 0.5 11.5005 0.947716 11.5005 1.5V11.0858L14.036 8.55026C14.4265 8.15976 15.0597 8.15972 15.4502 8.55026C15.8407 8.9408 15.8407 9.57397 15.4502 9.96447L11.2126 14.2021C11.1957 14.2192 11.1782 14.2358 11.1601 14.2516C11.0807 14.3215 10.9928 14.3766 10.9001 14.417C10.7777 14.4704 10.6426 14.5 10.5005 14.5C10.3724 14.5 10.25 14.4759 10.1375 14.4321C10.0121 14.3833 9.89457 14.3083 9.79334 14.2071L5.5507 9.96447Z" fill="#A0A3BD"/>
<rect x="0.5" y="16.5" width="20" height="2" rx="1" fill="#A0A3BD"/>
</svg>
