<svg width="75" height="75" viewBox="0 0 75 75" fill="none" xmlns="http://www.w3.org/2000/svg">
<circle cx="37.3411" cy="37.294" r="36.6188" fill="#F3F3F9" stroke="#E9EBEC" stroke-width="0.927059"/>
<ellipse cx="37.3397" cy="37.2938" rx="33.2196" ry="33.2196" fill="url(#paint0_linear_64_1536)"/>
<mask id="mask0_64_1536" style="mask-type:alpha" maskUnits="userSpaceOnUse" x="4" y="4" width="67" height="67">
<ellipse cx="37.3397" cy="37.2938" rx="33.2196" ry="33.2196" fill="url(#paint1_linear_64_1536)"/>
</mask>
<g mask="url(#mask0_64_1536)">
<path d="M47.6321 49.6415L49.0208 40.2602H40.3333V34.175C40.3333 31.6079 41.5446 29.104 45.4357 29.104H49.388V21.1173C49.388 21.1173 45.8028 20.4834 42.3766 20.4834C35.2186 20.4834 30.5444 24.9775 30.5444 33.1101V40.2602H22.5908V49.6415H30.5444V72.3214C32.1411 72.5813 33.7747 72.7144 35.4388 72.7144C37.1029 72.7144 38.7365 72.5813 40.3333 72.3214V49.6415H47.6321Z" fill="white"/>
</g>
<defs>
<linearGradient id="paint0_linear_64_1536" x1="37.3397" y1="4.07422" x2="37.3397" y2="70.3164" gradientUnits="userSpaceOnUse">
<stop stop-color="#18ACFE"/>
<stop offset="1" stop-color="#0163E0"/>
</linearGradient>
<linearGradient id="paint1_linear_64_1536" x1="37.3397" y1="4.07422" x2="37.3397" y2="70.3164" gradientUnits="userSpaceOnUse">
<stop stop-color="#18ACFE"/>
<stop offset="1" stop-color="#0163E0"/>
</linearGradient>
</defs>
</svg>
