<svg width="505" height="279" viewBox="0 0 505 279" fill="none" xmlns="http://www.w3.org/2000/svg">
<path d="M436.45 119.137L438.272 120.849L436.45 119.137ZM485 279L504.101 257.355L475.805 251.636L485 279ZM1.52914 186.623C1.18661 188.868 0.987164 191.039 0.929061 193.137L5.92714 193.275C5.97913 191.399 6.15821 189.434 6.47196 187.377L1.52914 186.623ZM2.5351 205.77C3.84573 210.023 5.9284 213.808 8.70399 217.137L12.5444 213.935C10.1851 211.105 8.42544 207.906 7.31333 204.298L2.5351 205.77ZM18.443 225.422C21.844 227.52 25.6686 229.297 29.8591 230.782L31.5296 226.07C27.6151 224.682 24.1202 223.049 21.068 221.167L18.443 225.422ZM41.8508 234.072C45.6889 234.865 49.745 235.492 53.9964 235.964L54.5478 230.994C50.4311 230.538 46.5302 229.933 42.863 229.175L41.8508 234.072ZM66.1768 236.879C70.1133 237.047 74.183 237.108 78.3726 237.069L78.3261 232.07C74.215 232.108 70.2323 232.047 66.39 231.883L66.1768 236.879ZM90.5864 236.694C94.5767 236.491 98.6569 236.21 102.817 235.856L102.393 230.874C98.2855 231.224 94.2622 231.5 90.3327 231.7L90.5864 236.694ZM114.819 234.659C118.774 234.209 122.79 233.7 126.86 233.136L126.173 228.183C122.142 228.742 118.166 229.246 114.254 229.691L114.819 234.659ZM138.933 231.326C142.861 230.695 146.83 230.017 150.835 229.295L149.947 224.374C145.973 225.091 142.035 225.763 138.139 226.389L138.933 231.326ZM162.753 227.038C166.698 226.257 170.67 225.436 174.665 224.579L173.616 219.691C169.646 220.542 165.7 221.357 161.782 222.134L162.753 227.038ZM186.456 221.96C190.379 221.059 194.319 220.125 198.269 219.161L197.084 214.304C193.155 215.262 189.238 216.191 185.336 217.087L186.456 221.96ZM210.011 216.217C213.912 215.213 217.819 214.182 221.726 213.126L220.421 208.299C216.533 209.35 212.646 210.376 208.765 211.375L210.011 216.217ZM233.404 209.896C237.289 208.797 241.169 207.676 245.041 206.534L243.626 201.738C239.773 202.875 235.91 203.991 232.043 205.084L233.404 209.896ZM256.636 203.045C260.506 201.857 264.361 200.651 268.197 199.429L266.679 194.665C262.86 195.882 259.022 197.083 255.169 198.265L256.636 203.045ZM279.726 195.686C283.568 194.416 287.386 193.131 291.174 191.833L289.553 187.103C285.782 188.395 281.982 189.674 278.156 190.939L279.726 195.686ZM302.649 187.832C306.478 186.473 310.269 185.103 314.018 183.724L312.292 179.031C308.562 180.403 304.788 181.767 300.977 183.12L302.649 187.832ZM325.364 179.476C329.196 178.016 332.974 176.548 336.693 175.077L334.853 170.428C331.154 171.891 327.395 173.351 323.583 174.804L325.364 179.476ZM347.878 170.565C351.687 168.999 355.421 167.431 359.073 165.865L357.103 161.27C353.474 162.826 349.763 164.384 345.977 165.941L347.878 170.565ZM370.227 160.975C374.003 159.28 377.675 157.591 381.23 155.912L379.095 151.391C375.57 153.055 371.929 154.73 368.18 156.413L370.227 160.975ZM392.074 150.643C395.84 148.757 399.443 146.889 402.868 145.046L400.499 140.643C397.121 142.461 393.562 144.306 389.835 146.172L392.074 150.643ZM413.514 139.055C417.26 136.841 420.711 134.672 423.836 132.561L421.036 128.418C418.008 130.464 414.644 132.579 410.97 134.75L413.514 139.055ZM433.796 125.08C435.475 123.643 436.973 122.231 438.272 120.849L434.628 117.425C433.476 118.651 432.114 119.938 430.544 121.282L433.796 125.08ZM438.272 120.849C439.708 119.32 441.1 117.799 442.447 116.288L438.714 112.962C437.397 114.439 436.035 115.927 434.628 117.425L438.272 120.849ZM450.352 106.88C453.004 103.518 455.428 100.207 457.631 96.949L453.49 94.1477C451.359 97.2982 449.007 100.511 446.426 103.783L450.352 106.88ZM464.114 86.3892C466.218 82.5645 468.003 78.8236 469.48 75.1743L464.846 73.2984C463.448 76.7507 461.749 80.3136 459.733 83.9796L464.114 86.3892ZM473.295 63.2679C474.305 58.9167 474.837 54.7216 474.906 50.7014L469.907 50.6152C469.844 54.2539 469.362 58.0985 468.424 62.1374L473.295 63.2679ZM473.451 38.0067C472.345 33.762 470.627 29.8157 468.339 26.2017L464.114 28.8763C466.124 32.051 467.636 35.5197 468.612 39.2665L473.451 38.0067ZM459.942 16.5049C456.839 13.8111 453.306 11.4406 449.388 9.40713L447.084 13.8451C450.684 15.7131 453.884 17.867 456.664 20.2806L459.942 16.5049ZM437.742 4.69491C433.919 3.52009 429.851 2.58554 425.559 1.89951L424.769 6.83684C428.85 7.48905 432.69 8.37314 436.274 9.47433L437.742 4.69491ZM413.191 0.644945C411.166 0.548572 409.102 0.5 407 0.5V5.5C409.025 5.5 411.01 5.54679 412.954 5.63929L413.191 0.644945ZM407 0.5C404.998 0.5 402.905 0.566621 400.743 0.70257L401.057 5.69272C403.12 5.56298 405.108 5.5 407 5.5V0.5ZM388.318 2.15791C384.325 2.83446 380.226 3.72727 376.119 4.85293L377.441 9.67509C381.381 8.59507 385.318 7.73754 389.153 7.08763L388.318 2.15791ZM364.241 8.79834C360.346 10.3372 356.525 12.1115 352.869 14.1384L355.293 18.5115C358.741 16.6 362.364 14.916 366.078 13.4485L364.241 8.79834ZM342.328 21.1167C338.974 23.7746 335.889 26.7302 333.186 30.0037L337.041 33.1877C339.497 30.214 342.323 27.5003 345.433 25.0356L342.328 21.1167ZM326.304 40.8496C324.54 44.6462 323.245 48.7419 322.508 53.1459L327.44 53.9703C328.101 50.0156 329.262 46.3506 330.839 42.9559L326.304 40.8496ZM321.96 65.9616C322.247 69.9346 322.945 74.0963 324.091 78.4521L328.926 77.1799C327.853 73.0995 327.21 69.2428 326.947 65.6003L321.96 65.9616ZM328.165 90.3602C328.949 92.2376 329.81 94.1472 330.75 96.0894L335.251 93.9103C334.349 92.048 333.526 90.2228 332.78 88.4341L328.165 90.3602ZM330.75 96.0894C331.61 97.8651 332.539 99.6081 333.53 101.32L337.857 98.8136C336.924 97.2044 336.055 95.5706 335.251 93.9103L330.75 96.0894ZM340.107 111.106C342.46 114.178 345.015 117.15 347.737 120.038L351.375 116.607C348.757 113.83 346.314 110.987 344.075 108.065L340.107 111.106ZM356.08 128.191C358.918 130.765 361.88 133.279 364.937 135.743L368.075 131.849C365.082 129.438 362.195 126.987 359.439 124.487L356.08 128.191ZM374.121 142.81C377.196 145.08 380.338 147.317 383.525 149.53L386.377 145.423C383.222 143.232 380.12 141.023 377.091 138.787L374.121 142.81ZM393.066 156.019C396.246 158.146 399.451 160.26 402.656 162.37L405.404 158.193C402.202 156.085 399.01 153.979 395.845 151.863L393.066 156.019ZM412.244 168.686C415.442 170.802 418.621 172.922 421.762 175.057L424.572 170.922C421.408 168.771 418.211 166.639 415.003 164.516L412.244 168.686ZM431.154 181.585C434.279 183.816 437.34 186.069 440.318 188.356L443.363 184.391C440.332 182.062 437.222 179.774 434.058 177.515L431.154 181.585ZM449.166 195.488C452.089 197.972 454.893 200.502 457.554 203.089L461.039 199.504C458.289 196.83 455.401 194.225 452.404 191.678L449.166 195.488ZM465.287 211.269C467.767 214.147 470.055 217.098 472.126 220.136L476.258 217.32C474.07 214.11 471.664 211.01 469.074 208.005L465.287 211.269ZM477.758 229.728C479.398 233.043 480.78 236.464 481.874 240.008L486.651 238.533C485.474 234.721 483.991 231.052 482.24 227.511L477.758 229.728ZM484.234 250.783C484.706 254.345 484.902 258.037 484.793 261.872L489.791 262.014C489.908 257.916 489.699 253.957 489.191 250.126L484.234 250.783Z" fill="#47B2FF"/>
</svg>
