<svg width="20" height="20" viewBox="0 0 20 20" fill="none" xmlns="http://www.w3.org/2000/svg">
<path fill-rule="evenodd" clip-rule="evenodd" d="M13.2626 2.49455L13.9697 1.78744C14.2176 1.53951 14.4981 1.34403 14.7975 1.20102C15.9125 0.668305 17.2885 0.863607 18.2123 1.78744C19.1361 2.71127 19.3315 4.08724 18.7987 5.20228C18.656 5.50097 18.4611 5.78093 18.2139 6.02847C18.2134 6.02901 18.2129 6.02954 18.2123 6.03008L17.5052 6.73719L13.2626 2.49455ZM11.8484 3.90876L3.36308 12.394L7.60572 16.6367L16.091 8.1514L11.8484 3.90876ZM11.8484 6.73719L6.1915 12.394L7.60572 13.8083L13.2626 8.1514L11.8484 6.73719ZM1.94886 13.8083L0.938956 17.8482C0.755965 18.5809 1.41888 19.2438 2.15153 19.0608L6.1915 18.0509L1.94886 13.8083Z" fill="#A0A3BD"/>
</svg>
