<svg width="13" height="21" viewBox="0 0 13 21" fill="none" xmlns="http://www.w3.org/2000/svg">
<path d="M10.4685 1.37988H3.12984C2.22916 1.37988 1.49902 2.11002 1.49902 3.01069V18.5034C1.49902 19.4041 2.22916 20.1342 3.12984 20.1342H10.4685C11.3692 20.1342 12.0993 19.4041 12.0993 18.5034V3.01069C12.0993 2.11002 11.3692 1.37988 10.4685 1.37988Z" stroke="#A0A3BD" stroke-width="1.15411" stroke-linecap="round" stroke-linejoin="round"/>
<path d="M9.47013 1.37988V2.44832C9.47013 2.73169 9.35757 3.00345 9.15719 3.20383C8.95682 3.4042 8.68506 3.51676 8.40169 3.51676H5.19637C4.913 3.51676 4.64124 3.4042 4.44087 3.20383C4.2405 3.00345 4.12793 2.73169 4.12793 2.44832V1.37988" stroke="#A0A3BD" stroke-width="1.15411" stroke-linecap="round" stroke-linejoin="round"/>
</svg>
